<mxfile host="app.diagrams.net" agent="Mozilla/5.0 (X11; Linux x86_64; rv:135.0) Gecko/20100101 Firefox/135.0" version="26.0.16">
  <diagram name="第 1 页" id="iPfBU9146JvkCyDo2VZc">
    <mxGraphModel dx="2241" dy="-434" grid="1" gridSize="10" guides="1" tooltips="1" connect="1" arrows="1" fold="1" page="1" pageScale="1" pageWidth="827" pageHeight="1169" math="0" shadow="0">
      <root>
        <mxCell id="0" />
        <mxCell id="1" parent="0" />
        <mxCell id="nrn1mgJe4jdml6yHmWeF-65" value="" style="rounded=0;whiteSpace=wrap;html=1;dashed=1;" parent="1" vertex="1">
          <mxGeometry x="-240" y="1310" width="790" height="510" as="geometry" />
        </mxCell>
        <mxCell id="nrn1mgJe4jdml6yHmWeF-3" style="edgeStyle=orthogonalEdgeStyle;rounded=0;orthogonalLoop=1;jettySize=auto;html=1;exitX=1;exitY=0.5;exitDx=0;exitDy=0;shadow=1;" parent="1" source="nrn1mgJe4jdml6yHmWeF-4" edge="1">
          <mxGeometry relative="1" as="geometry">
            <mxPoint x="270" y="1410" as="targetPoint" />
          </mxGeometry>
        </mxCell>
        <mxCell id="nrn1mgJe4jdml6yHmWeF-4" value="" style="rounded=0;whiteSpace=wrap;html=1;fillColor=#99CCFF;strokeColor=#6c8ebf;shadow=1;" parent="1" vertex="1">
          <mxGeometry x="30" y="1345" width="180" height="130" as="geometry" />
        </mxCell>
        <mxCell id="nrn1mgJe4jdml6yHmWeF-5" value="&lt;div&gt;&lt;b&gt;&lt;span style=&quot;color: rgb(0, 0, 0);&quot;&gt;&lt;font style=&quot;font-size: 14px;&quot;&gt;参数更大的模型&lt;/font&gt;&lt;/span&gt;&lt;br&gt;&lt;/b&gt;&lt;/div&gt;&lt;div&gt;&lt;b&gt;(DeepSeek-671B满血版）&lt;/b&gt;&lt;/div&gt;" style="text;html=1;align=center;verticalAlign=middle;whiteSpace=wrap;rounded=0;shadow=1;" parent="1" vertex="1">
          <mxGeometry x="45" y="1360" width="160" height="40" as="geometry" />
        </mxCell>
        <mxCell id="nrn1mgJe4jdml6yHmWeF-6" value="" style="shape=image;verticalLabelPosition=bottom;labelBackgroundColor=default;verticalAlign=top;aspect=fixed;imageAspect=0;editableCssRules=.*;image=data:image/svg+xml,PHN2ZyBoZWlnaHQ9IjE0NS4yNjI2NTg1OTYwMzg4MiIgd2lkdGg9IjE5My4zNzE4OTE5NzU0MDI4MyIgeG1sbnM6eGxpbms9Imh0dHA6Ly93d3cudzMub3JnLzE5OTkveGxpbmsiIHhtbG5zPSJodHRwOi8vd3d3LnczLm9yZy8yMDAwL3N2ZyIgdmVyc2lvbj0iMS4xIiB2aWV3Qm94PSIyMC40ODIxMjA1MTM5MTYwMTYgMTQzLjM2NDYyNDAyMzQzNzUgOTkwLjA2NDA4NjkxNDA2MjUgNzQzLjc0NDgxMjAxMTcxODgiIGNsYXNzPSJpY29uIj48cGF0aCBmaWxsPSIjNEQ2QkZFIiBkPSJNMTAwMC4xNCAyMDUuNzg0Yy0xMC40ODQtNS4yNDQtMTUuMDEyIDQuNzUyLTIxLjEzNiA5LjgyOC0yLjA4OCAxLjY0LTMuODY4IDMuNzY4LTUuNjUyIDUuNzM2LTE1LjMyIDE2LjcxMi0zMy4yMTYgMjcuNjg4LTU2LjYyOCAyNi4zNzYtMzQuMi0xLjk2NC02My40MDQgOS4wMTItODkuMjA4IDM1LjcyLTUuNDg4LTMyLjkzMi0yMy43MTYtNTIuNTkyLTUxLjQ2OC02NS4yMDgtMTQuNTQtNi41NTYtMjkuMjA0LTEzLjEwOC0zOS4zODQtMjcuMzYtNy4wODQtMTAuMTYtOS4wMDgtMjEuNDY0LTEyLjU3Mi0zMi42MDgtMi4yNTYtNi43MTYtNC41MDgtMTMuNi0xMi4wODQtMTQuNzQ0LTguMjUyLTEuMzEyLTExLjQ2OCA1LjczNi0xNC43MDQgMTEuNjMyLTEyLjkwNCAyNC4wODQtMTcuOTIgNTAuNjI4LTE3LjQwOCA3Ny40OTYgMS4xMDQgNjAuNDYgMjYuMTMyIDEwOC42MjggNzUuODE2IDE0Mi44NzIgNS42NTIgMy45MzIgNy4xMDggNy44NjQgNS4zMjQgMTMuNi0zLjM4IDExLjc5Mi03LjQzMiAyMy4yNi0xMC45NzYgMzUuMDYtMi4yNTIgNy41MzYtNS42MzIgOS4xNzItMTMuNTYgNS44OTYtMjcuMjU2LTExLjYzMi01MC44MDgtMjguODM2LTcxLjYzNi00OS42NC0zNS4zMjgtMzQuOS02Ny4yOC03My40MDQtMTA3LjExMi0xMDMuNTUyYTQ3My4wMTIgNDczLjAxMiAwIDAgMC0yOC40MDQtMTkuODI0Yy00MC42NTYtNDAuMzA0IDUuMzI0LTczLjQgMTUuOTcyLTc3LjMzMiAxMS4xMi00LjA5NiAzLjg3Mi0xOC4xODQtMzIuMTEyLTE4LjAyLTM1Ljk4NCAwLjE2LTY4Ljg5NiAxMi40NTItMTEwLjgzNiAyOC44MzYtNi4xNDQgMi40NTYtMTIuNiA0LjI1Ni0xOS4xOTIgNS43MzItMzguMDkyLTcuMzcyLTc3LjYyLTkuMDEyLTExOC45MjgtNC4yNi03Ny43NiA4Ljg0OC0xMzkuODggNDYuMzY4LTE4NS41NDggMTEwLjQyOEMyMy44NiAzNzkuNDU2IDEwLjkzNiA0NjYuOTQ0IDI2Ljc2OCA1NTguMjA0YzE2LjU4OCA5Ni4xNzIgNjQuNjk2IDE3NS44IDEzOC41ODggMjM4LjA2IDc2LjYzNiA2NC41NTIgMTY0Ljg4NCA5Ni4xNzIgMjY1LjU2NCA5MC4xMTIgNjEuMTUyLTMuNjA0IDEyOS4yMjgtMTEuOTYgMjA2LjAyOC03OC4zMTYgMTkuMzc2IDkuODI4IDM5LjcxMiAxMy43NjQgNzMuNDIgMTYuNzEyIDI1Ljk5MiAyLjQ1NiA1MC45OTYtMS4zMTIgNzAuMzQ4LTUuNDA4IDMwLjMzMi02LjU1MiAyOC4yMjQtMzUuMjI0IDE3LjI2OC00MC40NjgtODguOTA0LTQyLjI3Mi02OS4zODgtMjUuMDY4LTg3LjEyNC0zOC45OTIgNDUuMTgtNTQuNTYgMTEzLjI1Ni0xMTEuMjQ4IDEzOS44OC0yOTQuOTEyIDIuMTA4LTE0LjU4NCAwLjMyOC0yMy43NiAwLTM1LjU1Ni0wLjE2NC03LjIwOCAxLjQzMi05Ljk5MiA5LjUyNC0xMC44MTIgMjIuMjYtMi42MjQgNDMuODg4LTguODQ4IDYzLjczMi0xOS45ODggNTcuNTg4LTMyLjExNiA4MC44MzYtODQuODcyIDg2LjMyNC0xNDguMTEyIDAuODItOS42NjgtMC4xNjQtMTkuNjY0LTEwLjE4LTI0Ljc0ek00OTguMTk2IDc3NC45NmMtODYuMTQtNjkuMTQtMTI3Ljk0LTkxLjkxNi0xNDUuMi05MC45MzItMTYuMTQgMC45ODQtMTMuMjMyIDE5LjgyNC05LjY4OCAzMi4xMTIgMy43MDQgMTIuMTI0IDguNTYgMjAuNDggMTUuMzM2IDMxLjEzMiA0LjY3MiA3LjA0NCA3LjkwOCAxNy41MjgtNC42ODggMjUuMzk2LTI3Ljc1MiAxNy41MjgtNzUuOTgtNS45LTc4LjIzNi03LjA0OC01Ni4xNTYtMzMuNzUyLTEwMy4xMTYtNzguMzE2LTEzNi4xODgtMTM5LjI2NC0zMS45NTItNTguNjUyLTUwLjQ4NC0xMjEuNTY4LTUzLjU2LTE4OC43NDQtMC44MTYtMTYuMjIgMy44NzItMjEuOTUyIDE5LjY2NC0yNC45MDRhMTg5LjE2IDE4OS4xNiAwIDAgMSA2My4xLTEuNjM2Yzg3Ljk0IDEzLjEwOCAxNjIuODE2IDUzLjI0OCAyMjUuNTY0IDExNi44MTYgMzUuODIgMzYuMjA4IDYyLjkxNiA3OS40NjQgOTAuODUyIDEyMS43MzYgMjkuNjc2IDQ0Ljg5MiA2MS42MjQgODcuNjUyIDEwMi4yNzYgMTIyLjcxNiAxNC4zNTYgMTIuMjg4IDI1LjgwNCAyMS42MjQgMzYuNzggMjguNTA4LTMzLjA3MiAzLjc2OC04OC4yNjggNC41ODgtMTI2LjAxMi0yNS44ODh6IG00MS4zMDgtMjcxLjE1NmMwLTcuMjA4IDUuNjUyLTEyLjk0NCAxMi43Ni0xMi45NDQgMS42MTIgMC4wMjggMy4wNTYgMC4zIDQuMzQgMC44MmExMi43ODggMTIuNzg4IDAgMCAxIDcuNjg4IDguMjhjMC4zOCAxLjI1MiAwLjU2IDIuNTMyIDAuNTQ4IDMuODQ0YTEyLjkyIDEyLjkyIDAgMCAxLTIuMDg4IDcuMTY4IDEyLjg2OCAxMi44NjggMCAwIDEtNS43MzYgNC43NzYgMTIuOCAxMi44IDAgMCAxLTQuOTE2IDEgMTIuNzM2IDEyLjczNiAwIDAgMS00Ljg5Ni0xIDEyLjc2IDEyLjc2IDAgMCAxLTUuNjg4LTQuNzg4IDEyLjY3MiAxMi42NzIgMCAwIDEtMi4wMTItNy4xNTZ6IG0xMjguMjY4IDY3LjE3NmMtOC4yMTIgMy40NC0xNi40NDggNi4zODgtMjQuMzcyIDYuNzE2LTEyLjI0OCAwLjY1Ni0yNS42NC00LjQyNC0zMi44OTItMTAuNjQ4LTExLjMwNC05LjY2OC0xOS4zNzItMTUuMDc2LTIyLjc1Mi0zMS45NDgtMS40NTYtNy4yMTItMC42NTYtMTguMzUyIDAuNjM2LTI0Ljc0IDIuOTA4LTEzLjc2NC0wLjMyOC0yMi42MTItOS44MzItMzAuNjQtNy43NC02LjU1Mi0xNy41OTItOC4zNTYtMjguNDA0LTguMzU2LTQuMDM2IDAtNy43NDQtMS44LTEwLjQ4OC0zLjI3NmExMC41OCAxMC41OCAwIDAgMS0zLjQ5Mi0yLjY3MiAxMC41MjQgMTAuNTI0IDAgMCAxLTIuMTM2LTMuODQ0IDEwLjU2OCAxMC41NjggMCAwIDEtMC40MTItNC4zOCAxMC41MTIgMTAuNTEyIDAgMCAxIDEuMzcyLTQuMTc2YzEuMTI0LTIuMjk2IDYuNjEyLTcuODY4IDcuOTA0LTguODQ4IDE0LjY4NC04LjUyIDMxLjYyLTUuNzM2IDQ3LjI2OCAwLjY1NiAxNC41MiA2LjA2IDI1LjQ3NiAxNy4yIDQxLjMwOCAzMi45MzIgMTYuMTQgMTkuMDA0IDE5LjA0OCAyNC4yNDggMjguMjIgMzguNSA3LjI3MiAxMS4xNCAxMy44ODggMjIuNjEyIDE4LjM5MiAzNS43MTYgMi43NjQgOC4xOTItMC44IDE0LjkxMi0xMC4zMiAxOS4wMDh6Ii8+PC9zdmc+;shadow=1;" parent="1" vertex="1">
          <mxGeometry x="90" y="1415" width="49.24" height="36.99" as="geometry" />
        </mxCell>
        <mxCell id="nrn1mgJe4jdml6yHmWeF-28" value="" style="rounded=0;whiteSpace=wrap;html=1;fillColor=#dae8fc;strokeColor=#6c8ebf;shadow=1;" parent="1" vertex="1">
          <mxGeometry x="60" y="1890" width="160" height="110" as="geometry" />
        </mxCell>
        <mxCell id="nrn1mgJe4jdml6yHmWeF-29" value="" style="shape=image;verticalLabelPosition=bottom;labelBackgroundColor=default;verticalAlign=top;aspect=fixed;imageAspect=0;editableCssRules=.*;image=data:image/svg+xml,PHN2ZyBoZWlnaHQ9IjE2Mi4wMDAwMDA0NzY4MzcxNiIgd2lkdGg9IjE0NS44MDAwMDYzODk2MTc5MiIgeG1sbnM6eGxpbms9Imh0dHA6Ly93d3cudzMub3JnLzE5OTkveGxpbmsiIHhtbG5zPSJodHRwOi8vd3d3LnczLm9yZy8yMDAwL3N2ZyIgdmVyc2lvbj0iMS4xIiB2aWV3Qm94PSIxMzQuMTQzOTk3MTkyMzgyOCA3NC42NDk1OTcxNjc5Njg3NSA3NDYuNDk2MDMyNzE0ODQzOCA4MjkuNDQwMDAyNDQxNDA2MiIgY2xhc3M9Imljb24iPjxwYXRoIGZpbGw9IiMxMjZFRTMiIGQ9Ik02ODIuMjkxMiAzNDUuOTA3MmwxNjEuNzkyLTk5LjEyMzJoLTUuMjIyNEw1NTEuNzgyNCA4NS4wOTQ0Yy0xNS42NjcyLTUuMjIyNC0zMS4zMzQ0LTEwLjQ0NDgtNDcuMDAxNi0xMC40NDQ4LTE1LjY2NzIgMC0zMS4zMzQ0IDUuMjIyNC00Ny4wMDE2IDEwLjQ0NDhMMTgxLjE0NTYgMjQ2Ljc4NGwxNjEuNzkyIDk5LjEyMzJoMzM5LjM1MzZ6TTcxMy41NzQ0IDQyOS40MTQ0bC0xNjcuMDE0NCAyNjYuMDM1MnYyMDguNjRoNS4yMjI0bDI4MS44NTYtMTYxLjY4OTZjMjYuMTEyLTE1LjY2NzIgNDcuMDAxNi01Mi4yMjQgNDcuMDAxNi03OC4yODQ4VjMyNS4xMmwtMTY3LjA2NTYgMTA0LjM0NTZ6Ii8+PHBhdGggZmlsbC1vcGFjaXR5PSIuMjUiIGZpbGw9IiMxMjZFRTMiIGQ9Ik02MDkuMTc3NiA0MjkuNDE0NEg0MDUuNjA2NGw5OS4xNzQ0IDE3Mi4xMzQ0eiIvPjxwYXRoIGZpbGw9IiMxMjZFRTMiIGQ9Ik00NjMuMDAxNiA2OTUuNDQ5NmwtMTYxLjc5Mi0yNzYuNDhMMTM0LjE0NCAzMTQuNjI0djMzMy44MjRjMCAzMS4zMzQ0IDIwLjg4OTYgNjcuODQgNDcuMDAxNiA3OC4zMzZsMjgxLjg1NiAxNjEuNjg5Nmg1LjIyMjR2LTE5My4wMjRoLTUuMjIyNHoiLz48L3N2Zz4=;" parent="1" vertex="1">
          <mxGeometry x="121.97000000000003" y="1950" width="36.05" height="40" as="geometry" />
        </mxCell>
        <mxCell id="nrn1mgJe4jdml6yHmWeF-30" value="&lt;b&gt;蒸馏后的参数更小的模型（DeepSeek-70B-distill)&lt;/b&gt;" style="text;whiteSpace=wrap;html=1;" parent="1" vertex="1">
          <mxGeometry x="70" y="1900" width="160" height="40" as="geometry" />
        </mxCell>
        <mxCell id="nrn1mgJe4jdml6yHmWeF-31" value="" style="shape=flexArrow;endArrow=classic;html=1;rounded=0;width=19.2;endSize=6.536;" parent="1" edge="1">
          <mxGeometry width="50" height="50" relative="1" as="geometry">
            <mxPoint x="140" y="1830" as="sourcePoint" />
            <mxPoint x="140" y="1880" as="targetPoint" />
          </mxGeometry>
        </mxCell>
        <mxCell id="nrn1mgJe4jdml6yHmWeF-33" value="&lt;font style=&quot;font-size: 29px;&quot;&gt;&lt;b&gt;&lt;font&gt;Logits蒸馏&lt;/font&gt;&lt;/b&gt;&lt;/font&gt;" style="text;html=1;align=center;verticalAlign=middle;whiteSpace=wrap;rounded=0;" parent="1" vertex="1">
          <mxGeometry x="-270" y="1880" width="260" height="55" as="geometry" />
        </mxCell>
        <mxCell id="nrn1mgJe4jdml6yHmWeF-34" value="" style="group" parent="1" vertex="1" connectable="0">
          <mxGeometry x="50.00000000000001" y="1531.94" width="150" height="65" as="geometry" />
        </mxCell>
        <mxCell id="nrn1mgJe4jdml6yHmWeF-21" value="" style="rounded=0;whiteSpace=wrap;html=1;fillColor=#dae8fc;strokeColor=#6c8ebf;shadow=1;" parent="nrn1mgJe4jdml6yHmWeF-34" vertex="1">
          <mxGeometry width="150" height="65" as="geometry" />
        </mxCell>
        <mxCell id="nrn1mgJe4jdml6yHmWeF-22" value="" style="shape=image;verticalLabelPosition=bottom;labelBackgroundColor=default;verticalAlign=top;aspect=fixed;imageAspect=0;editableCssRules=.*;image=data:image/svg+xml,PHN2ZyBoZWlnaHQ9IjE2Mi4wMDAwMDA0NzY4MzcxNiIgd2lkdGg9IjE0NS44MDAwMDYzODk2MTc5MiIgeG1sbnM6eGxpbms9Imh0dHA6Ly93d3cudzMub3JnLzE5OTkveGxpbmsiIHhtbG5zPSJodHRwOi8vd3d3LnczLm9yZy8yMDAwL3N2ZyIgdmVyc2lvbj0iMS4xIiB2aWV3Qm94PSIxMzQuMTQzOTk3MTkyMzgyOCA3NC42NDk1OTcxNjc5Njg3NSA3NDYuNDk2MDMyNzE0ODQzOCA4MjkuNDQwMDAyNDQxNDA2MiIgY2xhc3M9Imljb24iPjxwYXRoIGZpbGw9IiMxMjZFRTMiIGQ9Ik02ODIuMjkxMiAzNDUuOTA3MmwxNjEuNzkyLTk5LjEyMzJoLTUuMjIyNEw1NTEuNzgyNCA4NS4wOTQ0Yy0xNS42NjcyLTUuMjIyNC0zMS4zMzQ0LTEwLjQ0NDgtNDcuMDAxNi0xMC40NDQ4LTE1LjY2NzIgMC0zMS4zMzQ0IDUuMjIyNC00Ny4wMDE2IDEwLjQ0NDhMMTgxLjE0NTYgMjQ2Ljc4NGwxNjEuNzkyIDk5LjEyMzJoMzM5LjM1MzZ6TTcxMy41NzQ0IDQyOS40MTQ0bC0xNjcuMDE0NCAyNjYuMDM1MnYyMDguNjRoNS4yMjI0bDI4MS44NTYtMTYxLjY4OTZjMjYuMTEyLTE1LjY2NzIgNDcuMDAxNi01Mi4yMjQgNDcuMDAxNi03OC4yODQ4VjMyNS4xMmwtMTY3LjA2NTYgMTA0LjM0NTZ6Ii8+PHBhdGggZmlsbC1vcGFjaXR5PSIuMjUiIGZpbGw9IiMxMjZFRTMiIGQ9Ik02MDkuMTc3NiA0MjkuNDE0NEg0MDUuNjA2NGw5OS4xNzQ0IDE3Mi4xMzQ0eiIvPjxwYXRoIGZpbGw9IiMxMjZFRTMiIGQ9Ik00NjMuMDAxNiA2OTUuNDQ5NmwtMTYxLjc5Mi0yNzYuNDhMMTM0LjE0NCAzMTQuNjI0djMzMy44MjRjMCAzMS4zMzQ0IDIwLjg4OTYgNjcuODQgNDcuMDAxNiA3OC4zMzZsMjgxLjg1NiAxNjEuNjg5Nmg1LjIyMjR2LTE5My4wMjRoLTUuMjIyNHoiLz48L3N2Zz4=;" parent="nrn1mgJe4jdml6yHmWeF-34" vertex="1">
          <mxGeometry x="10.000000000000028" y="12.5" width="36.05" height="40" as="geometry" />
        </mxCell>
        <mxCell id="nrn1mgJe4jdml6yHmWeF-45" style="edgeStyle=orthogonalEdgeStyle;rounded=0;orthogonalLoop=1;jettySize=auto;html=1;exitX=1;exitY=0.25;exitDx=0;exitDy=0;" parent="nrn1mgJe4jdml6yHmWeF-34" source="nrn1mgJe4jdml6yHmWeF-23" edge="1">
          <mxGeometry relative="1" as="geometry">
            <mxPoint x="230" y="29.059999999999945" as="targetPoint" />
          </mxGeometry>
        </mxCell>
        <mxCell id="nrn1mgJe4jdml6yHmWeF-23" value="&lt;font style=&quot;font-size: 13px;&quot;&gt;&lt;b&gt;参数更小的模型&lt;/b&gt;&lt;/font&gt;" style="text;whiteSpace=wrap;html=1;" parent="nrn1mgJe4jdml6yHmWeF-34" vertex="1">
          <mxGeometry x="49.620000000000005" y="20" width="100.38" height="35" as="geometry" />
        </mxCell>
        <mxCell id="nrn1mgJe4jdml6yHmWeF-37" value="" style="group" parent="1" vertex="1" connectable="0">
          <mxGeometry x="-160" y="1460" width="80" height="68.01" as="geometry" />
        </mxCell>
        <mxCell id="nrn1mgJe4jdml6yHmWeF-7" value="" style="rounded=0;whiteSpace=wrap;html=1;fillColor=#fff2cc;strokeColor=#d6b656;shadow=1;" parent="nrn1mgJe4jdml6yHmWeF-37" vertex="1">
          <mxGeometry width="64" height="51.0075" as="geometry" />
        </mxCell>
        <mxCell id="nrn1mgJe4jdml6yHmWeF-8" value="" style="rounded=0;whiteSpace=wrap;html=1;fillColor=#fff2cc;strokeColor=#d6b656;shadow=1;" parent="nrn1mgJe4jdml6yHmWeF-37" vertex="1">
          <mxGeometry x="8" y="8.50125" width="64" height="51.0075" as="geometry" />
        </mxCell>
        <mxCell id="nrn1mgJe4jdml6yHmWeF-9" value="&lt;b&gt;&lt;font style=&quot;font-size: 16px;&quot;&gt;提问&lt;/font&gt;&lt;/b&gt;" style="rounded=0;whiteSpace=wrap;html=1;fillColor=#fff2cc;strokeColor=#d6b656;shadow=1;" parent="nrn1mgJe4jdml6yHmWeF-37" vertex="1">
          <mxGeometry x="16" y="17.0025" width="64" height="51.0075" as="geometry" />
        </mxCell>
        <mxCell id="nrn1mgJe4jdml6yHmWeF-38" value="" style="group" parent="1" vertex="1" connectable="0">
          <mxGeometry x="280" y="1390" width="80" height="55.01" as="geometry" />
        </mxCell>
        <mxCell id="nrn1mgJe4jdml6yHmWeF-11" value="" style="rounded=0;whiteSpace=wrap;html=1;fillColor=#d5e8d4;strokeColor=#82b366;shadow=1;" parent="nrn1mgJe4jdml6yHmWeF-38" vertex="1">
          <mxGeometry width="64" height="41.25749999999999" as="geometry" />
        </mxCell>
        <mxCell id="nrn1mgJe4jdml6yHmWeF-12" value="" style="rounded=0;whiteSpace=wrap;html=1;fillColor=#d5e8d4;strokeColor=#82b366;shadow=1;" parent="nrn1mgJe4jdml6yHmWeF-38" vertex="1">
          <mxGeometry x="8" y="6.876249999999999" width="64" height="41.25749999999999" as="geometry" />
        </mxCell>
        <mxCell id="nrn1mgJe4jdml6yHmWeF-13" value="&lt;b&gt;预测概率&lt;/b&gt;" style="rounded=0;whiteSpace=wrap;html=1;fillColor=#d5e8d4;strokeColor=#82b366;shadow=1;" parent="nrn1mgJe4jdml6yHmWeF-38" vertex="1">
          <mxGeometry x="16" y="13.752499999999998" width="64" height="41.25749999999999" as="geometry" />
        </mxCell>
        <mxCell id="nrn1mgJe4jdml6yHmWeF-39" style="edgeStyle=orthogonalEdgeStyle;rounded=0;orthogonalLoop=1;jettySize=auto;html=1;exitX=1;exitY=0.5;exitDx=0;exitDy=0;entryX=0;entryY=0.5;entryDx=0;entryDy=0;" parent="1" source="nrn1mgJe4jdml6yHmWeF-9" target="nrn1mgJe4jdml6yHmWeF-4" edge="1">
          <mxGeometry relative="1" as="geometry">
            <Array as="points">
              <mxPoint x="-30" y="1503" />
              <mxPoint x="-30" y="1410" />
            </Array>
          </mxGeometry>
        </mxCell>
        <mxCell id="nrn1mgJe4jdml6yHmWeF-40" style="edgeStyle=orthogonalEdgeStyle;rounded=0;orthogonalLoop=1;jettySize=auto;html=1;exitX=1;exitY=0.5;exitDx=0;exitDy=0;entryX=0;entryY=0.5;entryDx=0;entryDy=0;" parent="1" source="nrn1mgJe4jdml6yHmWeF-9" target="nrn1mgJe4jdml6yHmWeF-21" edge="1">
          <mxGeometry relative="1" as="geometry">
            <Array as="points">
              <mxPoint x="-30" y="1503" />
              <mxPoint x="-30" y="1564" />
            </Array>
          </mxGeometry>
        </mxCell>
        <mxCell id="nrn1mgJe4jdml6yHmWeF-41" value="" style="group;fillColor=none;strokeColor=none;" parent="1" vertex="1" connectable="0">
          <mxGeometry x="280" y="1540" width="80" height="55.01" as="geometry" />
        </mxCell>
        <mxCell id="nrn1mgJe4jdml6yHmWeF-42" value="" style="rounded=0;whiteSpace=wrap;html=1;fillColor=#ffe6cc;strokeColor=#d79b00;shadow=1;" parent="nrn1mgJe4jdml6yHmWeF-41" vertex="1">
          <mxGeometry width="64" height="41.25749999999999" as="geometry" />
        </mxCell>
        <mxCell id="nrn1mgJe4jdml6yHmWeF-43" value="" style="rounded=0;whiteSpace=wrap;html=1;fillColor=#ffe6cc;strokeColor=#d79b00;shadow=1;" parent="nrn1mgJe4jdml6yHmWeF-41" vertex="1">
          <mxGeometry x="8" y="6.876249999999999" width="64" height="41.25749999999999" as="geometry" />
        </mxCell>
        <mxCell id="nrn1mgJe4jdml6yHmWeF-51" style="edgeStyle=orthogonalEdgeStyle;rounded=0;orthogonalLoop=1;jettySize=auto;html=1;exitX=0.5;exitY=1;exitDx=0;exitDy=0;" parent="nrn1mgJe4jdml6yHmWeF-41" source="nrn1mgJe4jdml6yHmWeF-44" edge="1">
          <mxGeometry relative="1" as="geometry">
            <mxPoint x="48" y="110" as="targetPoint" />
          </mxGeometry>
        </mxCell>
        <mxCell id="nrn1mgJe4jdml6yHmWeF-44" value="&lt;b&gt;预测概率&lt;/b&gt;" style="rounded=0;whiteSpace=wrap;html=1;fillColor=#ffe6cc;strokeColor=#d79b00;shadow=1;" parent="nrn1mgJe4jdml6yHmWeF-41" vertex="1">
          <mxGeometry x="16" y="13.752499999999998" width="64" height="41.25749999999999" as="geometry" />
        </mxCell>
        <mxCell id="nrn1mgJe4jdml6yHmWeF-46" value="&lt;font style=&quot;font-size: 14px;&quot;&gt;&lt;b&gt;对比损失&lt;/b&gt;&lt;/font&gt;" style="rounded=0;whiteSpace=wrap;html=1;fillColor=#f8cecc;strokeColor=#b85450;" parent="1" vertex="1">
          <mxGeometry x="430" y="1471.51" width="100" height="44.99" as="geometry" />
        </mxCell>
        <mxCell id="nrn1mgJe4jdml6yHmWeF-47" value="" style="group;fillColor=none;strokeColor=none;" parent="1" vertex="1" connectable="0">
          <mxGeometry x="280" y="1660" width="80" height="55.01" as="geometry" />
        </mxCell>
        <mxCell id="nrn1mgJe4jdml6yHmWeF-48" value="" style="rounded=0;whiteSpace=wrap;html=1;fillColor=#e1d5e7;strokeColor=#9673a6;shadow=1;" parent="nrn1mgJe4jdml6yHmWeF-47" vertex="1">
          <mxGeometry width="64" height="41.25749999999999" as="geometry" />
        </mxCell>
        <mxCell id="nrn1mgJe4jdml6yHmWeF-49" value="" style="rounded=0;whiteSpace=wrap;html=1;fillColor=#e1d5e7;strokeColor=#9673a6;shadow=1;" parent="nrn1mgJe4jdml6yHmWeF-47" vertex="1">
          <mxGeometry x="8" y="6.876249999999999" width="64" height="41.25749999999999" as="geometry" />
        </mxCell>
        <mxCell id="nrn1mgJe4jdml6yHmWeF-50" value="&lt;b&gt;预测答案&lt;/b&gt;" style="rounded=0;whiteSpace=wrap;html=1;fillColor=#e1d5e7;strokeColor=#9673a6;shadow=1;" parent="nrn1mgJe4jdml6yHmWeF-47" vertex="1">
          <mxGeometry x="16" y="13.752499999999998" width="64" height="41.25749999999999" as="geometry" />
        </mxCell>
        <mxCell id="nrn1mgJe4jdml6yHmWeF-52" style="edgeStyle=orthogonalEdgeStyle;rounded=0;orthogonalLoop=1;jettySize=auto;html=1;exitX=1;exitY=0.5;exitDx=0;exitDy=0;entryX=0.5;entryY=1;entryDx=0;entryDy=0;" parent="1" source="nrn1mgJe4jdml6yHmWeF-44" target="nrn1mgJe4jdml6yHmWeF-46" edge="1">
          <mxGeometry relative="1" as="geometry" />
        </mxCell>
        <mxCell id="nrn1mgJe4jdml6yHmWeF-53" style="edgeStyle=orthogonalEdgeStyle;rounded=0;orthogonalLoop=1;jettySize=auto;html=1;exitX=1;exitY=0.25;exitDx=0;exitDy=0;entryX=0.5;entryY=0;entryDx=0;entryDy=0;" parent="1" source="nrn1mgJe4jdml6yHmWeF-13" target="nrn1mgJe4jdml6yHmWeF-46" edge="1">
          <mxGeometry relative="1" as="geometry" />
        </mxCell>
        <mxCell id="nrn1mgJe4jdml6yHmWeF-54" value="&lt;b&gt;&lt;font style=&quot;font-size: 14px;&quot;&gt;根据概率选择最有可能的答案&lt;/font&gt;&lt;/b&gt;" style="text;html=1;align=center;verticalAlign=middle;whiteSpace=wrap;rounded=0;" parent="1" vertex="1">
          <mxGeometry x="120" y="1610" width="210" height="30" as="geometry" />
        </mxCell>
        <mxCell id="nrn1mgJe4jdml6yHmWeF-57" value="" style="group;fillColor=none;strokeColor=none;" parent="1" vertex="1" connectable="0">
          <mxGeometry x="280" y="1742" width="80" height="55.01" as="geometry" />
        </mxCell>
        <mxCell id="nrn1mgJe4jdml6yHmWeF-58" value="" style="rounded=0;whiteSpace=wrap;html=1;fillColor=#b0e3e6;strokeColor=#0e8088;shadow=1;" parent="nrn1mgJe4jdml6yHmWeF-57" vertex="1">
          <mxGeometry width="64" height="41.25749999999999" as="geometry" />
        </mxCell>
        <mxCell id="nrn1mgJe4jdml6yHmWeF-59" value="" style="rounded=0;whiteSpace=wrap;html=1;fillColor=#b0e3e6;strokeColor=#0e8088;shadow=1;" parent="nrn1mgJe4jdml6yHmWeF-57" vertex="1">
          <mxGeometry x="8" y="6.876249999999999" width="64" height="41.25749999999999" as="geometry" />
        </mxCell>
        <mxCell id="nrn1mgJe4jdml6yHmWeF-60" value="&lt;b&gt;真实答案&lt;/b&gt;" style="rounded=0;whiteSpace=wrap;html=1;fillColor=#b0e3e6;strokeColor=#0e8088;shadow=1;" parent="nrn1mgJe4jdml6yHmWeF-57" vertex="1">
          <mxGeometry x="16" y="13.752499999999998" width="64" height="41.25749999999999" as="geometry" />
        </mxCell>
        <mxCell id="nrn1mgJe4jdml6yHmWeF-61" value="&lt;font style=&quot;font-size: 14px;&quot;&gt;&lt;b&gt;对比损失&lt;/b&gt;&lt;/font&gt;" style="rounded=0;whiteSpace=wrap;html=1;fillColor=#f8cecc;strokeColor=#b85450;" parent="1" vertex="1">
          <mxGeometry x="420" y="1712" width="100" height="44.99" as="geometry" />
        </mxCell>
        <mxCell id="nrn1mgJe4jdml6yHmWeF-62" style="edgeStyle=orthogonalEdgeStyle;rounded=0;orthogonalLoop=1;jettySize=auto;html=1;exitX=1;exitY=0.5;exitDx=0;exitDy=0;entryX=0.5;entryY=0;entryDx=0;entryDy=0;" parent="1" source="nrn1mgJe4jdml6yHmWeF-50" target="nrn1mgJe4jdml6yHmWeF-61" edge="1">
          <mxGeometry relative="1" as="geometry">
            <Array as="points">
              <mxPoint x="360" y="1692" />
              <mxPoint x="470" y="1692" />
            </Array>
          </mxGeometry>
        </mxCell>
        <mxCell id="nrn1mgJe4jdml6yHmWeF-63" style="edgeStyle=orthogonalEdgeStyle;rounded=0;orthogonalLoop=1;jettySize=auto;html=1;exitX=1;exitY=0.5;exitDx=0;exitDy=0;entryX=0.53;entryY=0.997;entryDx=0;entryDy=0;entryPerimeter=0;" parent="1" source="nrn1mgJe4jdml6yHmWeF-60" target="nrn1mgJe4jdml6yHmWeF-61" edge="1">
          <mxGeometry relative="1" as="geometry" />
        </mxCell>
        <mxCell id="nrn1mgJe4jdml6yHmWeF-66" value="&lt;font style=&quot;font-size: 16px;&quot;&gt;&lt;b&gt;利用预测的差异训练参数更小的模型&lt;/b&gt;&lt;/font&gt;" style="text;html=1;align=center;verticalAlign=middle;whiteSpace=wrap;rounded=1;fillColor=#ffe6cc;strokeColor=#d79b00;" parent="1" vertex="1">
          <mxGeometry x="-240" y="1310" width="790" height="30" as="geometry" />
        </mxCell>
      </root>
    </mxGraphModel>
  </diagram>
</mxfile>
